<svg width="213" height="27" viewBox="0 0 213 27" fill="none" xmlns="http://www.w3.org/2000/svg">
<path d="M21.8525 0.799999V26H19.77C19.455 26 19.1867 25.9475 18.965 25.8425C18.7433 25.7258 18.5333 25.5392 18.335 25.2825L4.4925 7.5025C4.5275 7.84083 4.55083 8.17917 4.5625 8.5175C4.58583 8.84417 4.5975 9.1475 4.5975 9.4275V26H0.9925V0.799999H3.1275C3.3025 0.799999 3.44833 0.811666 3.565 0.834999C3.69333 0.846666 3.81 0.875832 3.915 0.922498C4.02 0.969166 4.11917 1.03917 4.2125 1.1325C4.30583 1.22583 4.405 1.3425 4.51 1.4825L18.37 19.28C18.335 18.9183 18.3058 18.5625 18.2825 18.2125C18.2708 17.8625 18.265 17.5358 18.265 17.2325V0.799999H21.8525ZM36.2167 18.195C34.8751 18.2417 33.7434 18.3525 32.8217 18.5275C31.9001 18.6908 31.1534 18.9067 30.5817 19.175C30.0101 19.4317 29.5959 19.7408 29.3392 20.1025C29.0942 20.4642 28.9717 20.8608 28.9717 21.2925C28.9717 21.7125 29.0359 22.0742 29.1642 22.3775C29.3042 22.6692 29.4909 22.9142 29.7242 23.1125C29.9692 23.2992 30.2492 23.4392 30.5642 23.5325C30.8909 23.6142 31.2467 23.655 31.6317 23.655C32.6117 23.655 33.4517 23.4742 34.1517 23.1125C34.8634 22.7392 35.5517 22.2025 36.2167 21.5025V18.195ZM26.2417 10.635C28.2601 8.75667 30.6634 7.8175 33.4517 7.8175C34.4784 7.8175 35.3884 7.98667 36.1817 8.325C36.9867 8.65167 37.6576 9.11833 38.1942 9.725C38.7426 10.3317 39.1567 11.055 39.4367 11.895C39.7284 12.7233 39.8742 13.645 39.8742 14.66V26H38.1942C37.8326 26 37.5584 25.9475 37.3717 25.8425C37.1851 25.7258 37.0276 25.4983 36.8992 25.16L36.5317 23.7075C36.0767 24.1158 35.6276 24.4833 35.1842 24.81C34.7409 25.125 34.2801 25.3933 33.8017 25.615C33.3351 25.8367 32.8276 26 32.2792 26.105C31.7426 26.2217 31.1476 26.28 30.4942 26.28C29.7709 26.28 29.0942 26.1808 28.4642 25.9825C27.8459 25.7842 27.3092 25.4867 26.8542 25.09C26.3992 24.6817 26.0376 24.18 25.7692 23.585C25.5126 22.99 25.3842 22.29 25.3842 21.485C25.3842 20.7967 25.5651 20.1258 25.9267 19.4725C26.3001 18.8192 26.9067 18.2358 27.7467 17.7225C28.5984 17.1975 29.7126 16.7658 31.0892 16.4275C32.4776 16.0892 34.1867 15.8967 36.2167 15.85V14.66C36.2167 13.3767 35.9426 12.42 35.3942 11.79C34.8459 11.16 34.0409 10.845 32.9792 10.845C32.2559 10.845 31.6492 10.9383 31.1592 11.125C30.6692 11.3 30.2434 11.4925 29.8817 11.7025C29.5201 11.9125 29.1992 12.1108 28.9192 12.2975C28.6392 12.4725 28.3417 12.56 28.0267 12.56C27.7701 12.56 27.5484 12.4958 27.3617 12.3675C27.1867 12.2275 27.0409 12.0583 26.9242 11.86L26.2417 10.635ZM47.8343 11.4575C48.3943 10.3258 49.0709 9.43917 49.8643 8.7975C50.6576 8.14417 51.6084 7.8175 52.7168 7.8175C53.1018 7.8175 53.4634 7.86417 53.8018 7.9575C54.1401 8.03917 54.4434 8.1675 54.7118 8.3425L54.4493 11.1775C54.4026 11.3758 54.3268 11.5158 54.2218 11.5975C54.1284 11.6675 54.0001 11.7025 53.8368 11.7025C53.6618 11.7025 53.4109 11.6733 53.0843 11.615C52.7576 11.545 52.4134 11.51 52.0518 11.51C51.5268 11.51 51.0601 11.5858 50.6518 11.7375C50.2551 11.8892 49.8934 12.1108 49.5668 12.4025C49.2518 12.6942 48.9718 13.05 48.7268 13.47C48.4818 13.89 48.2543 14.3683 48.0443 14.905V26H44.2818V8.15H46.4693C46.8659 8.15 47.1401 8.22583 47.2918 8.3775C47.4434 8.5175 47.5484 8.76833 47.6068 9.13L47.8343 11.4575ZM68.2939 15.0625C68.2939 14.4325 68.2006 13.8492 68.0139 13.3125C67.8389 12.7642 67.5764 12.2917 67.2264 11.895C66.8764 11.4867 66.4389 11.1717 65.9139 10.95C65.4006 10.7167 64.8056 10.6 64.1289 10.6C62.7639 10.6 61.6906 10.9908 60.9089 11.7725C60.1273 12.5542 59.6314 13.6508 59.4214 15.0625H68.2939ZM59.3164 17.3725C59.3631 18.3875 59.5206 19.2683 59.7889 20.015C60.0573 20.75 60.4131 21.3625 60.8564 21.8525C61.3114 22.3425 61.8481 22.71 62.4664 22.955C63.0964 23.1883 63.7964 23.305 64.5664 23.305C65.3014 23.305 65.9373 23.2233 66.4739 23.06C67.0106 22.885 67.4773 22.6983 67.8739 22.5C68.2706 22.29 68.6089 22.1033 68.8889 21.94C69.1689 21.765 69.4256 21.6775 69.6589 21.6775C69.9623 21.6775 70.1956 21.7942 70.3589 22.0275L71.4264 23.41C70.9831 23.935 70.4814 24.3783 69.9214 24.74C69.3614 25.1017 68.7664 25.3992 68.1364 25.6325C67.5064 25.8542 66.8589 26.0117 66.1939 26.105C65.5289 26.21 64.8814 26.2625 64.2514 26.2625C63.0148 26.2625 61.8656 26.0583 60.8039 25.65C59.7539 25.23 58.8381 24.6175 58.0564 23.8125C57.2864 23.0075 56.6798 22.01 56.2364 20.82C55.8048 19.63 55.5889 18.2592 55.5889 16.7075C55.5889 15.4708 55.7814 14.3158 56.1664 13.2425C56.5631 12.1692 57.1231 11.2358 57.8464 10.4425C58.5814 9.64917 59.4681 9.025 60.5064 8.57C61.5564 8.10333 62.7406 7.87 64.0589 7.87C65.1556 7.87 66.1706 8.05083 67.1039 8.4125C68.0373 8.7625 68.8423 9.28167 69.5189 9.97C70.1956 10.6583 70.7206 11.5042 71.0939 12.5075C71.4789 13.4992 71.6714 14.6308 71.6714 15.9025C71.6714 16.4858 71.6073 16.8767 71.4789 17.075C71.3506 17.2733 71.1173 17.3725 70.7789 17.3725H59.3164ZM85.8377 11.3875C85.7444 11.5508 85.6394 11.6675 85.5227 11.7375C85.406 11.8075 85.2602 11.8425 85.0852 11.8425C84.8869 11.8425 84.671 11.7842 84.4377 11.6675C84.2044 11.5392 83.9302 11.3992 83.6152 11.2475C83.3002 11.0958 82.9269 10.9617 82.4952 10.845C82.0752 10.7167 81.5794 10.6525 81.0077 10.6525C80.541 10.6525 80.1152 10.7108 79.7302 10.8275C79.3569 10.9325 79.036 11.09 78.7677 11.3C78.511 11.4983 78.3127 11.7375 78.1727 12.0175C78.0327 12.2858 77.9627 12.5775 77.9627 12.8925C77.9627 13.3125 78.091 13.6625 78.3477 13.9425C78.6044 14.2225 78.9427 14.4675 79.3627 14.6775C79.7827 14.8758 80.261 15.0567 80.7977 15.22C81.3344 15.3833 81.8827 15.5583 82.4427 15.745C83.0027 15.9317 83.551 16.1475 84.0877 16.3925C84.6244 16.6375 85.1027 16.9408 85.5227 17.3025C85.9427 17.6525 86.281 18.0842 86.5377 18.5975C86.7944 19.0992 86.9227 19.7117 86.9227 20.435C86.9227 21.275 86.771 22.0508 86.4677 22.7625C86.1644 23.4742 85.721 24.0925 85.1377 24.6175C84.5544 25.1425 83.8252 25.5508 82.9502 25.8425C82.0869 26.1342 81.0952 26.28 79.9752 26.28C79.3569 26.28 78.756 26.2217 78.1727 26.105C77.601 26 77.0527 25.8542 76.5277 25.6675C76.0144 25.4692 75.5302 25.2358 75.0752 24.9675C74.6319 24.6992 74.2352 24.4075 73.8852 24.0925L74.7602 22.6575C74.8652 22.4825 74.9935 22.3483 75.1452 22.255C75.3085 22.15 75.5069 22.0975 75.7402 22.0975C75.9852 22.0975 76.2244 22.1792 76.4577 22.3425C76.7027 22.4942 76.9827 22.6633 77.2977 22.85C77.6244 23.0367 78.0152 23.2117 78.4702 23.375C78.9252 23.5267 79.491 23.6025 80.1677 23.6025C80.7277 23.6025 81.2119 23.5383 81.6202 23.41C82.0285 23.27 82.3669 23.0833 82.6352 22.85C82.9035 22.6167 83.1019 22.3542 83.2302 22.0625C83.3585 21.7592 83.4227 21.4383 83.4227 21.1C83.4227 20.645 83.2944 20.2717 83.0377 19.98C82.781 19.6883 82.4369 19.4375 82.0052 19.2275C81.5852 19.0175 81.101 18.8308 80.5527 18.6675C80.016 18.5042 79.4677 18.3292 78.9077 18.1425C78.3477 17.9558 77.7935 17.74 77.2452 17.495C76.7085 17.25 76.2244 16.9408 75.7927 16.5675C75.3727 16.1825 75.0344 15.7217 74.7777 15.185C74.521 14.6367 74.3927 13.9717 74.3927 13.19C74.3927 12.4783 74.5327 11.8017 74.8127 11.16C75.1044 10.5183 75.5244 9.9525 76.0727 9.4625C76.6327 8.9725 77.3152 8.5875 78.1202 8.3075C78.9369 8.01583 79.876 7.87 80.9377 7.87C82.1394 7.87 83.2302 8.0625 84.2102 8.4475C85.1902 8.8325 86.0127 9.3575 86.6777 10.0225L85.8377 11.3875ZM94.221 10.2675C94.956 9.54417 95.761 8.96667 96.636 8.535C97.511 8.09167 98.5318 7.87 99.6985 7.87C100.679 7.87 101.536 8.03333 102.271 8.36C103.018 8.68667 103.642 9.1475 104.144 9.7425C104.657 10.3375 105.042 11.055 105.299 11.895C105.555 12.7233 105.684 13.6392 105.684 14.6425V26H101.939V14.6425C101.939 13.4408 101.659 12.5075 101.099 11.8425C100.55 11.1775 99.7102 10.845 98.5785 10.845C97.7385 10.845 96.9568 11.0375 96.2335 11.4225C95.5218 11.8075 94.851 12.3325 94.221 12.9975V26H90.4585V0.0999997H94.221V10.2675ZM113.245 12.665H114.715C114.937 12.665 115.129 12.6592 115.293 12.6475C115.456 12.6242 115.602 12.5892 115.73 12.5425C115.87 12.4958 115.993 12.4317 116.098 12.35C116.214 12.2567 116.337 12.1458 116.465 12.0175L126.458 1.745C126.633 1.54667 126.802 1.4125 126.965 1.3425C127.14 1.2725 127.344 1.2375 127.578 1.2375H129.013L118.198 12.35C117.976 12.5833 117.778 12.7642 117.603 12.8925C117.439 13.0208 117.253 13.1258 117.043 13.2075C117.288 13.2775 117.509 13.3883 117.708 13.54C117.906 13.68 118.104 13.8667 118.303 14.1L129.695 26H128.243C127.939 26 127.718 25.965 127.578 25.895C127.449 25.8133 127.321 25.6908 127.193 25.5275L116.728 14.8175C116.599 14.6892 116.477 14.5783 116.36 14.485C116.255 14.3917 116.133 14.3158 115.993 14.2575C115.864 14.1875 115.707 14.1408 115.52 14.1175C115.345 14.0825 115.118 14.065 114.838 14.065H113.245V26H111.443V1.2375H113.245V12.665ZM145.493 8.5875V26H144.566C144.274 26 144.105 25.8483 144.058 25.545L143.901 22.955C143.096 23.9583 142.162 24.7633 141.101 25.37C140.051 25.9767 138.878 26.28 137.583 26.28C136.615 26.28 135.769 26.1283 135.046 25.825C134.322 25.5217 133.722 25.0842 133.243 24.5125C132.765 23.9408 132.403 23.2525 132.158 22.4475C131.913 21.6425 131.791 20.7325 131.791 19.7175V8.5875H133.471V19.7175C133.471 21.3508 133.844 22.6342 134.591 23.5675C135.337 24.4892 136.475 24.95 138.003 24.95C139.135 24.95 140.191 24.6642 141.171 24.0925C142.162 23.5092 143.043 22.7042 143.813 21.6775V8.5875H145.493ZM151.226 26V8.5875H152.154C152.446 8.5875 152.615 8.73333 152.661 9.025L152.819 11.545C153.496 10.5767 154.271 9.795 155.146 9.2C156.021 8.605 157.007 8.3075 158.104 8.3075C159.376 8.3075 160.391 8.675 161.149 9.41C161.919 10.145 162.438 11.1658 162.706 12.4725C162.916 11.7608 163.208 11.1425 163.581 10.6175C163.966 10.0925 164.404 9.66083 164.894 9.3225C165.384 8.9725 165.915 8.71583 166.486 8.5525C167.07 8.38917 167.665 8.3075 168.271 8.3075C169.135 8.3075 169.911 8.45333 170.599 8.745C171.287 9.025 171.871 9.445 172.349 10.005C172.827 10.565 173.195 11.2533 173.451 12.07C173.708 12.8867 173.836 13.82 173.836 14.87V26H172.174V14.87C172.174 13.1667 171.806 11.8717 171.071 10.985C170.336 10.0867 169.286 9.6375 167.921 9.6375C167.315 9.6375 166.731 9.74833 166.171 9.97C165.623 10.1917 165.133 10.5242 164.701 10.9675C164.281 11.3992 163.943 11.9417 163.686 12.595C163.441 13.2483 163.319 14.0067 163.319 14.87V26H161.639V14.87C161.639 13.1783 161.301 11.8833 160.624 10.985C159.959 10.0867 158.979 9.6375 157.684 9.6375C156.739 9.6375 155.864 9.9175 155.059 10.4775C154.254 11.0375 153.536 11.8133 152.906 12.805V26H151.226ZM189.138 17.5825C187.481 17.6408 186.052 17.775 184.851 17.985C183.661 18.1833 182.675 18.4575 181.893 18.8075C181.123 19.1575 180.551 19.5775 180.178 20.0675C179.805 20.5458 179.618 21.0942 179.618 21.7125C179.618 22.2958 179.711 22.8033 179.898 23.235C180.096 23.655 180.353 24.005 180.668 24.285C180.995 24.5533 181.368 24.7517 181.788 24.88C182.208 25.0083 182.646 25.0725 183.101 25.0725C183.777 25.0725 184.396 25.0025 184.956 24.8625C185.527 24.7108 186.052 24.5067 186.531 24.25C187.021 23.9817 187.476 23.6667 187.896 23.305C188.316 22.9433 188.73 22.5525 189.138 22.1325V17.5825ZM178.901 11.055C179.811 10.145 180.767 9.45667 181.771 8.99C182.774 8.52333 183.911 8.29 185.183 8.29C186.116 8.29 186.933 8.44167 187.633 8.745C188.333 9.03667 188.911 9.4625 189.366 10.0225C189.832 10.5708 190.182 11.2417 190.416 12.035C190.649 12.8167 190.766 13.6917 190.766 14.66V26H190.101C189.751 26 189.535 25.8367 189.453 25.51L189.208 23.27C188.73 23.7367 188.251 24.1567 187.773 24.53C187.306 24.9033 186.816 25.2183 186.303 25.475C185.79 25.7317 185.236 25.93 184.641 26.07C184.046 26.21 183.392 26.28 182.681 26.28C182.086 26.28 181.508 26.1925 180.948 26.0175C180.388 25.8425 179.886 25.5742 179.443 25.2125C179.011 24.8508 178.661 24.39 178.393 23.83C178.136 23.2583 178.008 22.5758 178.008 21.7825C178.008 21.0475 178.218 20.365 178.638 19.735C179.058 19.105 179.717 18.5567 180.616 18.09C181.514 17.6233 182.663 17.25 184.063 16.97C185.475 16.69 187.166 16.5267 189.138 16.48V14.66C189.138 13.05 188.788 11.8133 188.088 10.95C187.4 10.075 186.373 9.6375 185.008 9.6375C184.168 9.6375 183.451 9.75417 182.856 9.9875C182.272 10.2208 181.776 10.4775 181.368 10.7575C180.96 11.0375 180.627 11.2942 180.371 11.5275C180.114 11.7608 179.898 11.8775 179.723 11.8775C179.595 11.8775 179.49 11.8483 179.408 11.79C179.326 11.7317 179.256 11.6558 179.198 11.5625L178.901 11.055ZM197.936 12.7875C198.204 12.0758 198.508 11.4458 198.846 10.8975C199.196 10.3375 199.593 9.865 200.036 9.48C200.491 9.095 200.993 8.80333 201.541 8.605C202.101 8.395 202.719 8.29 203.396 8.29C203.758 8.29 204.114 8.325 204.464 8.395C204.814 8.45333 205.123 8.56417 205.391 8.7275L205.251 9.8825C205.193 10.0692 205.082 10.1625 204.919 10.1625C204.779 10.1625 204.563 10.1217 204.271 10.04C203.991 9.95833 203.618 9.9175 203.151 9.9175C202.474 9.9175 201.874 10.0225 201.349 10.2325C200.835 10.4308 200.369 10.7342 199.949 11.1425C199.54 11.5508 199.179 12.0583 198.864 12.665C198.56 13.26 198.28 13.9483 198.024 14.73V26H196.344V8.5875H197.236C197.434 8.5875 197.574 8.62833 197.656 8.71C197.738 8.79167 197.79 8.93167 197.814 9.13L197.936 12.7875Z" fill="white"/>
<path d="M207.562 23.83C207.562 23.4917 207.62 23.1767 207.737 22.885C207.865 22.5817 208.034 22.3192 208.244 22.0975C208.466 21.8758 208.723 21.7008 209.014 21.5725C209.318 21.4442 209.638 21.38 209.977 21.38C210.315 21.38 210.63 21.4442 210.922 21.5725C211.225 21.7008 211.488 21.8758 211.709 22.0975C211.931 22.3192 212.106 22.5817 212.234 22.885C212.363 23.1767 212.427 23.4917 212.427 23.83C212.427 24.18 212.363 24.5008 212.234 24.7925C212.106 25.0842 211.931 25.3408 211.709 25.5625C211.488 25.7842 211.225 25.9533 210.922 26.07C210.63 26.1983 210.315 26.2625 209.977 26.2625C209.638 26.2625 209.318 26.1983 209.014 26.07C208.723 25.9533 208.466 25.7842 208.244 25.5625C208.034 25.3408 207.865 25.0842 207.737 24.7925C207.62 24.5008 207.562 24.18 207.562 23.83Z" fill="#FF0707"/>
</svg>
